<?xml version="1.0" encoding="utf-8"?>
<!-- Generator: Adobe Illustrator 26.3.1, SVG Export Plug-In . SVG Version: 6.00 Build 0)  -->
<svg version="1.1" id="Layer_1" xmlns="http://www.w3.org/2000/svg" xmlns:xlink="http://www.w3.org/1999/xlink" x="0px" y="0px"
	 viewBox="0 0 52.63 35" style="enable-background:new 0 0 52.63 35;" xml:space="preserve">
<style type="text/css">
	.st0{fill:#E9ECF6;}
	.st1{fill:none;}
</style>
<path class="st0" d="M26.61,9.25c6.16,0.03,5.35,0.37,5.37-4.14V0h7.29v5.06c0.02,5.14-0.77,4.12,5.37,4.19h7.27v5.55h-7.34
	c-6.11-0.07-5.22-0.5-5.29,3.62v7.81c0,1.88,0.67,2.46,1.12,2.83c0.9,0.73,2.21,0.73,3.67,0.69c1.97-0.05,4.95-0.89,6.43-1.81
	l2.13,4.27c-0.89,0.57-3.74,1.82-5.24,2.19c-1.28,0.29-2.77,0.6-4.19,0.6c-3.57,0-6.33-0.73-8.28-2.21
	c-1.95-1.47-2.92-3.61-2.92-6.42v-7.8c-0.03-4.28-0.05-3.78-3.67-3.81c-1.4,0.07-2.58,0.93-4.43,2.53l-10.21,8.84
	c-3.12,2.81-1.42,2.62,0.95,2.54h13.42v5.53H0v-4.8l13.83-12.06c3.32-2.58,1.69-2.57-0.95-2.53H0.69V9.26h21.52L26.61,9.25z"/>
<rect y="0" class="st1" width="52.63" height="35"/>
</svg>
