<?xml version="1.0" encoding="utf-8"?>
<!-- Generator: Adobe Illustrator 26.3.1, SVG Export Plug-In . SVG Version: 6.00 Build 0)  -->
<svg version="1.1" id="Layer_1" xmlns="http://www.w3.org/2000/svg" xmlns:xlink="http://www.w3.org/1999/xlink" x="0px" y="0px"
	 viewBox="0 0 255 35" style="enable-background:new 0 0 255 35;" xml:space="preserve">
<style type="text/css">
	.st0{fill:none;}
	.st1{fill:#E9ECF6;}
</style>
<rect y="0.65" class="st0" width="255" height="34.09"/>
<path class="st1" d="M166.26,33.03c-0.77,0.55-1.73,0.98-2.87,1.27s-2.31,0.44-3.53,0.44c-2.94,0-5.22-0.66-6.84-1.98
	s-2.43-3.21-2.43-5.68v-12.2c0-0.49,0.01-0.88-0.88-0.88h-3.94v-3.65h3.94c0.88,0,0.88-0.4,0.88-0.88V0.65h5.29v8.81
	c0,0.49,0.05,0.88,0.88,0.88h7.36v3.65h-7.36c-0.89,0-0.88,0.4-0.88,0.88v12.01c0,1.32,0.4,2.34,1.19,3.05
	c0.79,0.71,1.92,1.06,3.39,1.06c1.62,0,3-0.38,4.14-1.15L166.26,33.03z"/>
<rect y="0.65" class="st0" width="255" height="34.09"/>
<path class="st1" d="M195.27,23.7h-21.71c-1.1,0-2.45-0.06-1.35,2.14c0.59,1.19,1.49,2.21,2.73,3.05c1.93,1.31,4.33,1.96,7.2,1.96
	c3.49,0,6.3-0.99,8.44-2.95l2.92,2.86c-1.32,1.29-2.97,2.28-4.94,2.95c-1.97,0.68-4.16,1.02-6.59,1.02c-3.09,0-5.83-0.53-8.22-1.59
	s-4.24-2.55-5.54-4.45c-1.31-1.91-1.96-4.06-1.96-6.46c0-2.37,0.64-4.51,1.9-6.42c1.27-1.91,3.01-3.39,5.24-4.45
	c2.22-1.06,4.73-1.59,7.53-1.59c2.79,0,5.28,0.53,7.47,1.59s3.9,2.55,5.13,4.45c1.23,1.91,1.85,4.09,1.85,6.56
	C195.38,22.7,195.35,23.14,195.27,23.7 M174.56,15.43c-0.82,0.62-1.48,1.34-1.98,2.14c-0.79,1.28-1.15,2.93,1.68,2.93h14.37
	c0.89,0,2.03,0,1.23-1.72c-0.58-1.26-1.36-2.41-2.56-3.33c-1.71-1.31-3.83-1.96-6.37-1.96C178.4,13.5,176.27,14.14,174.56,15.43"/>
<rect y="0.65" class="st0" width="255" height="34.09"/>
<path class="st1" d="M204.81,33.11c-2.34-1.08-4.16-2.56-5.49-4.45c-1.32-1.89-1.98-4.04-1.98-6.44s0.66-4.55,1.98-6.44
	c1.32-1.89,3.15-3.37,5.49-4.43c2.33-1.06,4.99-1.59,7.97-1.59c2.65,0,5.01,0.45,7.09,1.34s3.69,2.19,4.82,3.88l-4.02,2.17
	c-0.92-1.17-2.06-2.05-3.42-2.63s-2.87-0.88-4.52-0.88c-1.91,0-3.63,0.36-5.16,1.06c-1.52,0.71-2.72,1.72-3.58,3.03
	c-0.87,1.31-1.3,2.81-1.3,4.5c0,1.72,0.43,3.24,1.3,4.55c0.86,1.31,2.06,2.32,3.58,3.02c1.53,0.71,3.24,1.06,5.16,1.06
	c1.65,0,3.16-0.29,4.52-0.88c1.36-0.58,2.5-1.46,3.42-2.63l4.02,2.12c-1.14,1.69-2.75,2.99-4.82,3.9c-2.08,0.91-4.44,1.36-7.09,1.36
	C209.8,34.73,207.14,34.19,204.81,33.11"/>
<rect y="0.65" class="st0" width="255" height="34.09"/>
<path class="st1" d="M251.73,12.18c2.19,1.8,3.27,4.44,3.27,7.92v14.08h-5.28V20.6c0-2.37-0.68-4.15-2.04-5.35s-3.31-1.8-5.85-1.8
	c-2.87,0-5.13,0.7-6.78,2.1s-2.48,3.41-2.48,6.02v12.6h-5.29V0.65h5.29v10.52c0.02,1.11,0.24,1.45,0.92,0.91
	c1.19-0.94,2.32-1.36,3.4-1.75c1.78-0.65,3.79-0.85,5.99-0.85C246.6,9.48,249.55,10.38,251.73,12.18"/>
<rect y="0.65" class="st0" width="255" height="34.09"/>
<path class="st1" d="M0,34.17v-4.59l13.22-11.53c2.98-2.35,1.08-2.42-0.91-2.42H0.66v-5.29h25.73v4.59L13.07,26.46
	c-3.47,2.74-0.89,2.36,0.9,2.42H26.8v5.29H0z"/>
<rect y="0.65" class="st0" width="255" height="34.09"/>
<path class="st1" d="M43.99,34.74c-3.15,0-5.95-0.54-8.42-1.61c-2.52-1.1-4.49-2.62-5.91-4.56c-1.33-1.82-2.03-4.01-2.03-6.26
	c0-2.36,0.72-4.49,2.15-6.37c1.43-1.89,3.38-3.38,5.85-4.46c2.47-1.09,5.25-1.63,8.36-1.63c3.14,0,5.95,0.54,8.42,1.63
	c2.47,1.09,4.41,2.57,5.82,4.44s2.12,4,2.12,6.4c0,2.33-0.72,4.44-2.15,6.33s-3.38,3.38-5.85,4.46
	C49.88,34.2,47.1,34.74,43.99,34.74 M43.99,29.03c2.46,0,4.46-0.69,6.01-2.07c1.33-1.19,2.05-2.87,2.05-4.65
	c0-1.99-0.76-3.61-2.27-4.86c-1.51-1.26-3.44-1.89-5.79-1.89c-2.35,0-4.28,0.63-5.79,1.89c-1.21,1-1.93,2.24-2.18,3.71
	c-0.42,2.52,0.73,5.11,2.87,6.51C40.29,28.58,41.99,29.03,43.99,29.03"/>
<rect y="0.65" class="st0" width="255" height="34.09"/>
<path class="st1" d="M78.96,34.74c-3.15,0-5.95-0.54-8.42-1.61c-2.52-1.1-4.49-2.62-5.91-4.56c-1.33-1.82-2.03-4.01-2.03-6.26
	c0-2.36,0.72-4.49,2.15-6.37c1.43-1.89,3.38-3.38,5.85-4.46c2.47-1.09,5.25-1.63,8.36-1.63c3.14,0,5.95,0.54,8.42,1.63
	s4.41,2.57,5.82,4.44c1.41,1.87,2.12,4,2.12,6.4c0,2.33-0.72,4.44-2.15,6.33s-3.38,3.38-5.85,4.46
	C84.85,34.2,82.06,34.74,78.96,34.74 M78.96,29.03c2,0,3.7-0.46,5.1-1.37c2.13-1.4,3.28-3.99,2.87-6.5
	c-0.24-1.47-0.97-2.71-2.18-3.72c-1.51-1.26-3.44-1.89-5.79-1.89s-4.28,0.63-5.79,1.89c-1.51,1.25-2.26,2.87-2.27,4.86
	c0,1.78,0.72,3.46,2.05,4.65C74.49,28.34,76.49,29.03,78.96,29.03"/>
<rect y="0.65" class="st0" width="255" height="34.09"/>
<rect x="98.89" y="0.65" class="st1" width="8.24" height="33.53"/>
<rect y="0.65" class="st0" width="255" height="34.09"/>
<path class="st1" d="M124.71,34.74c-2.71,0-5.11-0.53-7.19-1.59c-2.09-1.06-3.73-2.52-4.93-4.39c-1.19-1.87-1.79-4-1.79-6.4
	c0-2.36,0.64-4.49,1.91-6.37c1.27-1.89,2.99-3.38,5.16-4.49s4.61-1.66,7.31-1.66c2.11,0,4.03,0.38,5.76,1.13
	c1.02,0.44,2.54,1.16,3.16,1.58c0.85,0.58,0.71,0.08,0.62-0.53l-0.27-1.86h7.88v24.01h-7.94l0.67-2.92
	c0.05-0.29-0.17-0.45-0.64,0.14C132.68,33.56,129.1,34.74,124.71,34.74 M127.16,29.03c2.04,0,3.77-0.48,5.18-1.43
	c2.06-1.39,3.17-3.89,2.8-6.35c-0.23-1.52-0.96-2.79-2.19-3.81c-1.51-1.26-3.44-1.89-5.79-1.89s-4.28,0.63-5.79,1.89
	c-1.23,1.02-1.96,2.29-2.19,3.8c-0.37,2.46,0.74,4.97,2.8,6.36C123.39,28.56,125.11,29.03,127.16,29.03"/>
</svg>
